<?xml version="1.0" encoding="utf-8"?>
<!-- Generator: Adobe Illustrator 25.0.0, SVG Export Plug-In . SVG Version: 6.00 Build 0)  -->
<svg version="1.1" id="图层_1" width="16" height="16" xmlns="http://www.w3.org/2000/svg" xmlns:xlink="http://www.w3.org/1999/xlink" x="0px" y="0px"
	 viewBox="0 0 16 16" style="enable-background:new 0 0 16 16;" xml:space="preserve">
<style type="text/css">
	.st0{fill:#A4C939;}
</style>
<g>
	<path class="st0" fill="#A4C939" d="M8.78,10.64c-0.5,0-0.94,0-1.42,0c0,1.79,0,3.57,0,5.36c-2.46,0-4.89,0-7.33,0c0-3.58,0-7.16,0-10.75
		c5.31,0,10.62,0,15.95,0c0,3.58,0,7.16,0,10.75c-2.4,0-4.78,0-7.2,0C8.78,14.22,8.78,12.44,8.78,10.64z M7.37,7.8
		c0,0.25,0,0.48,0,0.73c0.47,0,0.91,0,1.37,0c0-0.25,0-0.48,0-0.73C8.28,7.8,7.83,7.8,7.37,7.8z"/>
	<path class="st0" fill="#A4C939" d="M3.99,1.55C3.5,1.1,3.02,0.65,2.52,0.2C2.73,0.13,2.93,0.07,3.15,0c0.06,0.05,0.12,0.1,0.17,0.14
		C3.73,0.52,4.15,0.9,4.55,1.28c0.08,0.08,0.16,0.09,0.32,0.06c2.08-0.43,4.16-0.43,6.24,0c0.18,0.04,0.25,0.02,0.34-0.07
		c0.45-0.42,0.91-0.84,1.38-1.27c0.22,0.07,0.42,0.13,0.64,0.19c-0.49,0.45-0.98,0.9-1.46,1.35c2.39,0.75,3.79,1.83,4,3.33
		c-5.35,0-10.65,0-16,0C0.2,3.39,1.59,2.31,3.99,1.55z M12.26,2.65c-0.46,0-0.89,0-1.34,0c0,0.24,0,0.46,0,0.7c0.45,0,0.89,0,1.34,0
		C12.26,3.11,12.26,2.89,12.26,2.65z M5.03,2.65c-0.46,0-0.9,0-1.33,0c0,0.24,0,0.47,0,0.69c0.45,0,0.88,0,1.33,0
		C5.03,3.12,5.03,2.89,5.03,2.65z"/>
</g>
</svg>
